HIERARCHY
ROOT hip
{
  OFFSET 0 0 0
  CHANNELS 6 Xposition Yposition Zposition Zrotation Yrotation Xrotation
  JOINT abdomen
  {
    OFFSET 0 20.6881 -0.73152
    CHANNELS 3 Zrotation Xrotation Yrotation
    JOINT chest
    {
      OFFSET 0 11.7043 -0.48768
      CHANNELS 3 Zrotation Xrotation Yrotation
      JOINT neck
      {
        OFFSET 0 22.1894 -2.19456
        CHANNELS 3 Zrotation Xrotation Yrotation
        JOINT head
        {
          OFFSET -0.24384 7.07133 1.2192
          CHANNELS 3 Zrotation Xrotation Yrotation
          JOINT leftEye
          {
            OFFSET 4.14528 8.04674 8.04672
            CHANNELS 3 Zrotation Xrotation Yrotation
            End Site
            {
              OFFSET 1 0 0
            }
          }
          JOINT rightEye
          {
            OFFSET -3.6576 8.04674 8.04672
            CHANNELS 3 Zrotation Xrotation Yrotation
            End Site
            {
              OFFSET 1 0 0
            }
          }
        }
      }
      JOINT rCollar
      {
        OFFSET -2.68224 19.2634 -4.8768
        CHANNELS 3 Zrotation Xrotation Yrotation
        JOINT rShldr
        {
          OFFSET -8.77824 -1.95073 1.46304
          CHANNELS 3 Zrotation Xrotation Yrotation
          JOINT rForeArm
          {
            OFFSET -28.1742 -1.7115 0.48768
            CHANNELS 3 Zrotation Xrotation Yrotation
            JOINT rHand
            {
              OFFSET -22.5879 0.773209 7.07136
              CHANNELS 3 Zrotation Xrotation Yrotation
              JOINT rThumb1
              {
                OFFSET -1.2192 -0.487915 3.41376
                CHANNELS 3 Zrotation Xrotation Yrotation
                JOINT rThumb2
                {
                  OFFSET -3.37035 -0.52449 3.41376
                  CHANNELS 3 Zrotation Xrotation Yrotation
                  End Site
                  {
                    OFFSET -1.78271 -1.18214 1.43049
                  }
                }
              }
              JOINT rIndex1
              {
                OFFSET -7.75947 0.938293 5.60832
                CHANNELS 3 Zrotation Xrotation Yrotation
                JOINT rIndex2
                {
                  OFFSET -2.54057 -0.884171 1.56538
                  CHANNELS 3 Zrotation Xrotation Yrotation
                  End Site
                  {
                    OFFSET -1.62519 -0.234802 1.16502
                  }
                }
              }
              JOINT rMid1
              {
                OFFSET -8.24714 1.18213 3.41376
                CHANNELS 3 Zrotation Xrotation Yrotation
                JOINT rMid2
                {
                  OFFSET -3.10165 -0.590103 1.0647
                  CHANNELS 3 Zrotation Xrotation Yrotation
                  End Site
                  {
                    OFFSET -2.48547 -0.328903 0.83742
                  }
                }
              }
              JOINT rRing1
              {
                OFFSET -8.82822 0.546677 1.51678
                CHANNELS 3 Zrotation Xrotation Yrotation
                JOINT rRing2
                {
                  OFFSET -2.60934 -0.819778 -0.0198488
                  CHANNELS 3 Zrotation Xrotation Yrotation
                  End Site
                  {
                    OFFSET -2.33842 -0.294052 0.168128
                  }
                }
              }
              JOINT rPinky1
              {
                OFFSET -8.27202 -0.0477905 -0.4584
                CHANNELS 3 Zrotation Xrotation Yrotation
                JOINT rPinky2
                {
                  OFFSET -1.82734 -0.647385 -0.700984
                  CHANNELS 3 Zrotation Xrotation Yrotation
                  End Site
                  {
                    OFFSET -1.69225 -0.51767 -0.607171
                  }
                }
              }
            }
          }
        }
      }
      JOINT lCollar
      {
        OFFSET 2.68224 19.2634 -4.8768
        CHANNELS 3 Zrotation Xrotation Yrotation
        JOINT lShldr
        {
          OFFSET 8.77824 -1.95073 1.46304
          CHANNELS 3 Zrotation Xrotation Yrotation
          JOINT lForeArm
          {
            OFFSET 28.1742 -1.7115 0.48768
            CHANNELS 3 Zrotation Xrotation Yrotation
            JOINT lHand
            {
              OFFSET 22.5879 0.773209 7.07136
              CHANNELS 3 Zrotation Xrotation Yrotation
              JOINT lThumb1
              {
                OFFSET 1.2192 -0.487915 3.41376
                CHANNELS 3 Zrotation Xrotation Yrotation
                JOINT lThumb2
                {
                  OFFSET 3.37035 -0.52449 3.41376
                  CHANNELS 3 Zrotation Xrotation Yrotation
                  End Site
                  {
                    OFFSET 1.78271 -1.18214 1.43049
                  }
                }
              }
              JOINT lIndex1
              {
                OFFSET 7.75947 0.938293 5.60832
                CHANNELS 3 Zrotation Xrotation Yrotation
                JOINT lIndex2
                {
                  OFFSET 2.54057 -0.884171 1.56538
                  CHANNELS 3 Zrotation Xrotation Yrotation
                  End Site
                  {
                    OFFSET 1.62519 -0.234802 1.16502
                  }
                }
              }
              JOINT lMid1
              {
                OFFSET 8.24714 1.18213 3.41376
                CHANNELS 3 Zrotation Xrotation Yrotation
                JOINT lMid2
                {
                  OFFSET 3.10165 -0.590103 1.0647
                  CHANNELS 3 Zrotation Xrotation Yrotation
                  End Site
                  {
                    OFFSET 2.48547 -0.328903 0.83742
                  }
                }
              }
              JOINT lRing1
              {
                OFFSET 8.82822 0.546677 1.51678
                CHANNELS 3 Zrotation Xrotation Yrotation
                JOINT lRing2
                {
                  OFFSET 2.60934 -0.819778 -0.0198488
                  CHANNELS 3 Zrotation Xrotation Yrotation
                  End Site
                  {
                    OFFSET 2.33842 -0.294052 0.168128
                  }
                }
              }
              JOINT lPinky1
              {
                OFFSET 8.27202 -0.0477905 -0.4584
                CHANNELS 3 Zrotation Xrotation Yrotation
                JOINT lPinky2
                {
                  OFFSET 1.82734 -0.647385 -0.700984
                  CHANNELS 3 Zrotation Xrotation Yrotation
                  End Site
                  {
                    OFFSET 1.69225 -0.51767 -0.607171
                  }
                }
              }
            }
          }
        }
      }
    }
  }
  JOINT rButtock
  {
    OFFSET -8.77824 4.35084 1.2192
    CHANNELS 3 Zrotation Xrotation Yrotation
    JOINT rThigh
    {
      OFFSET 0 -1.70687 -2.19456
      CHANNELS 3 Zrotation Xrotation Yrotation
      JOINT rShin
      {
        OFFSET 0 -36.8199 0.73152
        CHANNELS 3 Zrotation Xrotation Yrotation
        JOINT rFoot
        {
          OFFSET 0.73152 -45.1104 -5.12064
          CHANNELS 3 Zrotation Xrotation Yrotation
          End Site
          {
            OFFSET -1.1221 -3.69964 12.103
          }
        }
      }
    }
  }
  JOINT lButtock
  {
    OFFSET 8.77824 4.35084 1.2192
    CHANNELS 3 Zrotation Xrotation Yrotation
    JOINT lThigh
    {
      OFFSET 0 -1.70687 -2.19456
      CHANNELS 3 Zrotation Xrotation Yrotation
      JOINT lShin
      {
        OFFSET 0 -36.8199 0.73152
        CHANNELS 3 Zrotation Xrotation Yrotation
        JOINT lFoot
        {
          OFFSET -0.73152 -45.1104 -5.12064
          CHANNELS 3 Zrotation Xrotation Yrotation
          End Site
          {
            OFFSET 1.1221 -3.69964 12.103
          }
        }
      }
    }
  }
}
MOTION
Frames:	4
Frame Time:	0.00833333
45.0026 85.1388 189.433 0.0 0.0 0.0 0.41059 -0.00336425 0.0117807 0.113459 -0.00539522 0.0196594 -4.19604e-15 -7.95139e-16 -6.21204e-18 -1.27005e-14 3.18055e-15 2.17421e-17 -0.0 0.0 0.0 -0.0 0.0 0.0 -2.08858e-15 9.31803e-18 1.49089e-16 -4.25837e-14 1.30452e-16 5.96354e-16 -7.64923e-13 2.35759e-13 2.22639e-14 -8.76958e-12 -1.97642e-13 -1.90833e-14 -2.06872e-11 8.3533e-14 2.22639e-14 -3.57391e-11 1.39944e-13 3.57812e-14 -2.06812e-11 8.3092e-14 9.54166e-15 7.73091 5.47488 0.417314 -2.06869e-11 8.33902e-14 2.22639e-14 2.90554 0.965183 0.102902 -2.06802e-11 8.31914e-14 2.14687e-14 10.2786 0.731801 0.0259123 -2.06923e-11 8.50798e-14 2.54444e-14 2.22167 -0.733487 -0.20892 -2.18543e-15 9.31803e-18 -1.49089e-16 -4.5708e-14 -1.55301e-16 -7.95139e-16 -7.6711e-13 -2.23434e-13 -1.27222e-14 -8.76652e-12 2.58296e-13 2.22639e-14 -2.0681e-11 7.94707e-14 2.22639e-14 -3.57041e-11 1.39944e-13 3.81667e-14 -2.06851e-11 7.7526e-14 2.22639e-14 -7.73091 5.47488 -0.417314 -2.06811e-11 7.92157e-14 1.59028e-14 -2.90554 0.965183 -0.102902 -2.06869e-11 7.97127e-14 2.06736e-14 -10.2786 0.731801 -0.0259123 -2.06754e-11 8.07066e-14 1.59028e-14 -2.22167 -0.733487 0.20892 -2.03217e-16 0.0 -3.88251e-19 0.770595 -4.17183 -0.0656812 -0.0026548 2.00555 -0.0182697 -0.461819 2.16687 0.0960995 2.03217e-16 0.0 3.88251e-19 -0.143244 -2.55995 0.0260687 0.00716328 -0.914092 0.0621725 0.453784 3.47457 -0.121227
45.1588 83.2643 183.28 177.538 -1.6248 -155.583 -1.44011 -8.13887 -0.623423 1.02828 4.03341 -0.255032 -0.368908 2.14139 -0.617753 1.9352 -5.91304 -0.856953 -0.0 0.0 0.0 -0.0 0.0 0.0 2.82439e-14 6.05612e-14 -5.68245e-15 22.8636 1.33299 -1.48777 -4.50915 -2.10981 6.9756 0.000955321 0.691315 0.097133 -6.22701e-10 5.2101e-10 -6.33335e-10 -1.07888e-09 9.01733e-10 -1.09297e-09 -6.22697e-10 5.2101e-10 -6.33348e-10 7.73091 5.47488 0.417314 -6.22702e-10 5.2101e-10 -6.33335e-10 2.90554 0.965183 0.102902 -6.22694e-10 5.2101e-10 -6.33336e-10 10.2786 0.731801 0.0259123 -6.22707e-10 5.21012e-10 -6.33329e-10 2.22167 -0.733487 -0.20892 2.81382e-14 6.05619e-14 -5.98179e-15 -21.4751 2.92672 0.625829 3.25424 -1.3277 -5.23492 -0.00828354 2.02059 -0.283339 -6.57351e-10 1.37747e-10 4.63392e-10 -1.13298e-09 2.38725e-10 8.05357e-10 -6.57355e-10 1.37746e-10 4.63396e-10 -7.73091 5.47488 -0.417314 -6.5735e-10 1.37747e-10 4.63389e-10 -2.90554 0.965183 -0.102902 -6.57357e-10 1.37748e-10 4.63391e-10 -10.2786 0.731801 -0.0259123 -6.57347e-10 1.37748e-10 4.63383e-10 -2.22167 -0.733487 0.20892 -2.03217e-16 0.0 -3.88251e-19 0.744029 -10.2831 1.77825 0.00531208 4.59719 0.0550893 -0.699452 -3.42647 -2.35889 2.03217e-16 0.0 3.88251e-19 -0.41777 -9.55252 -2.81974 0.00561951 3.43468 -0.0198244 0.567915 0.150163 1.66321
45.1228 83.2622 183.265 177.368 -1.5744 -155.661 -3.60178 -16.7389 -1.3394 2.03788 8.30148 -0.55012 -0.707114 4.39775 -1.27366 3.78203 -12.1552 -1.79442 -0.0 0.0 0.0 -0.0 0.0 0.0 6.05897e-14 1.27822e-13 -1.12935e-14 47.1074 2.72803 -3.06539 -8.71612 -4.23166 14.3713 -0.000602878 1.43235 0.201301 -1.28064e-09 1.10749e-09 -1.3182e-09 -2.21894e-09 1.9168e-09 -2.27479e-09 -1.28063e-09 1.10749e-09 -1.31822e-09 7.73091 5.47488 0.417314 -1.28064e-09 1.10749e-09 -1.3182e-09 2.90554 0.965183 0.102902 -1.28063e-09 1.10749e-09 -1.3182e-09 10.2786 0.731801 0.0259123 -1.28064e-09 1.1075e-09 -1.3182e-09 2.22167 -0.733487 -0.20892 6.04742e-14 1.27823e-13 -1.15947e-14 -44.2494 6.01173 1.2932 6.42938 -2.69284 -10.774 0.00477038 4.16549 -0.58531 -1.34962e-09 2.75774e-10 9.7825e-10 -2.32601e-09 4.77952e-10 1.70005e-09 -1.34963e-09 2.75774e-10 9.78257e-10 -7.73091 5.47488 -0.417314 -1.34962e-09 2.75776e-10 9.78249e-10 -2.90554 0.965183 -0.102902 -1.34963e-09 2.75776e-10 9.78248e-10 -10.2786 0.731801 -0.0259123 -1.34962e-09 2.75776e-10 9.78237e-10 -2.22167 -0.733487 0.20892 -2.03217e-16 0.0 -3.88251e-19 1.1574 -16.7206 3.82121 0.00646259 7.33069 0.133173 -1.47495 -9.30751 -5.00312 2.03217e-16 0.0 3.88251e-19 -1.49448 -16.8841 -6.00685 0.0176103 8.02942 -0.107435 0.913521 -3.35854 3.55382
45.096 83.2546 183.267 177.241 -1.5305 -155.658 -5.72749 -24.3974 -2.05892 2.97631 12.1099 -0.820786 -0.967477 6.42117 -1.86366 5.25267 -17.7228 -2.68468 -0.0 0.0 0.0 -0.0 0.0 0.0 8.8909e-14 1.81665e-13 -1.73455e-14 68.7988 3.98816 -4.47296 -12.0174 -5.95496 21.0314 -0.00416981 2.07392 0.291569 -1.82673e-09 1.56286e-09 -1.90005e-09 -3.16516e-09 2.70492e-09 -3.27897e-09 -1.82673e-09 1.56286e-09 -1.90006e-09 7.73091 5.47488 0.417314 -1.82673e-09 1.56286e-09 -1.90005e-09 2.90554 0.965183 0.102902 -1.82672e-09 1.56286e-09 -1.90005e-09 10.2786 0.731801 0.0259123 -1.82674e-09 1.56287e-09 -1.90004e-09 2.22167 -0.733487 -0.20892 8.87855e-14 1.81667e-13 -1.76472e-14 -64.6189 8.77596 1.89726 9.04362 -3.85032 -15.737 0.0353874 6.06118 -0.854265 -1.93069e-09 4.13081e-10 1.39013e-09 -3.32754e-09 7.15894e-10 2.41599e-09 -1.93069e-09 4.13082e-10 1.39014e-09 -7.73091 5.47488 -0.417314 -1.93069e-09 4.13084e-10 1.39013e-09 -2.90554 0.965183 -0.102902 -1.9307e-09 4.13084e-10 1.39013e-09 -10.2786 0.731801 -0.0259123 -1.93069e-09 4.13083e-10 1.39012e-09 -2.22167 -0.733487 0.20892 -2.03217e-16 0.0 -3.88251e-19 1.95503 -22.4155 5.82124 0.00107909 9.7804 0.204221 -2.64608 -14.5022 -7.49622 2.03217e-16 0.0 3.88251e-19 -3.20384 -23.3042 -9.14566 0.0404415 12.1322 -0.187892 1.41903 -6.4713 5.26526
